<?xml version="1.0" encoding="UTF-8"?>
<svg version="1.1" xmlns="http://www.w3.org/2000/svg" width="160" height="160">
<path d="M0 0 C52.8 0 105.6 0 160 0 C160 52.8 160 105.6 160 160 C107.2 160 54.4 160 0 160 C0 107.2 0 54.4 0 0 Z " fill="#FFFFFF" transform="translate(0,0)"/>
<path d="M0 0 C16.5 0 33 0 50 0 C50 6.6 50 13.2 50 20 C53.3 20 56.6 20 60 20 C60 46.4 60 72.8 60 100 C40.2 100 20.4 100 0 100 C0 67 0 34 0 0 Z " fill="#1A1A1B" transform="translate(10,30)"/>
<path d="M0 0 C19.8 0 39.6 0 60 0 C60 6.6 60 13.2 60 20 C53.4 20 46.8 20 40 20 C40 46.4 40 72.8 40 100 C33.4 100 26.8 100 20 100 C20 73.6 20 47.2 20 20 C13.4 20 6.8 20 0 20 C0 13.4 0 6.8 0 0 Z " fill="#1A1A1B" transform="translate(90,30)"/>
<path d="M0 0 C6.6 0 13.2 0 20 0 C20 19.8 20 39.6 20 60 C13.4 60 6.8 60 0 60 C0 40.2 0 20.4 0 0 Z " fill="#FFFFFF" transform="translate(30,50)"/>
</svg>
